PathFileType	4	(X/Y/Z)	./resultDataOpenSim/trcMotMarkerGrf/sub06/qtm-15-06.trc
DataRate	CameraRate	NumFrames	NumMarkers	Units	OrigDataRate	OrigDataStartFrame	OrigNumFrames
250.000000	250.000000	8	24	m	250.000000	403	536
Frame#	Time	L.Toe.Tip			R.Toe.Tip			L.Ankle.Lat			R.Ankle.Lat			L.Ankle.Med			R.Ankle.Med			L.Heel			R.Heel			L.Knee.Lat			R.Knee.Lat			L.Knee.Med			R.Knee.Med			L.Thigh.Upper			R.Thigh.Upper			L.ASIS			R.ASIS			V.Sacral			L.Acromium			R.Acromium			C7			L.Elbow			R.Elbow			L.Wrist.Lat			R.Wrist.Lat
		X1	Y1	Z1	X2	Y2	Z2	X3	Y3	Z3	X4	Y4	Z4	X5	Y5	Z5	X6	Y6	Z6	X7	Y7	Z7	X8	Y8	Z8	X9	Y9	Z9	X10	Y10	Z10	X11	Y11	Z11	X12	Y12	Z12	X13	Y13	Z13	X14	Y14	Z14	X15	Y15	Z15	X16	Y16	Z16	X17	Y17	Z17	X18	Y18	Z18	X19	Y19	Z19	X20	Y20	Z20	X21	Y21	Z21	X22	Y22	Z22	X23	Y23	Z23	X24	Y24	Z24

403	1.608	1.6120375	0.097296116	-0.13615164	0.95168401	0.034794019	0.093937193	1.4830323	0.089932028	-0.14890454	0.84843307	0.11882281	0.12271607	1.4859951	0.10367666	-0.065009646	0.87468464	0.1302011	0.036720685	1.4273101	0.034480095	-0.10133997	0.79103963	0.128024	0.064920441	1.406559	0.45474133	-0.13861189	1.0866604	0.43684253	0.13254807	1.3944	0.44271489	-0.016843966	1.0610247	0.43384992	0.0039910803	1.2327517	0.80361363	-0.1761106	1.1545755	0.79374993	0.17110932	1.2942331	0.85274637	-0.12115381	1.276831	0.84328509	0.12819429	1.0995085	0.91754434	-0.0056813108	1.2161739	1.3312735	-0.18460577	1.2253751	1.3206095	0.1722489	1.1395147	1.358559	-0.0019767149	1.0942059	1.0489834	-0.24096248	1.3309226	1.0205336	0.2737002	1.1413744	0.82550443	-0.32364615	1.5060301	1.1599107	0.14894758
404	1.612	1.6164686	0.094681746	-0.13532479	0.95197295	0.034787303	0.094120061	1.4874756	0.087395042	-0.14859728	0.85045226	0.12050582	0.12324645	1.4898938	0.10105925	-0.064795293	0.87681579	0.1316035	0.037112722	1.4313148	0.032342446	-0.10150245	0.79338866	0.13068527	0.065610873	1.4119247	0.45316042	-0.1387064	1.093871	0.43522589	0.13239895	1.3997756	0.44149064	-0.017095768	1.0675865	0.43236212	0.0040725298	1.2394951	0.80217202	-0.17696471	1.1635527	0.7917325	0.16844833	1.3009419	0.85104676	-0.12205687	1.2835983	0.84173442	0.12734107	1.1061151	0.91589344	-0.0066169657	1.2216046	1.329583	-0.18592471	1.2309223	1.3190825	0.17110193	1.1449958	1.3568516	-0.0032543814	1.0996712	1.0472516	-0.24158303	1.3361376	1.0187598	0.27307031	1.1459924	0.82381032	-0.32475111	1.5104706	1.1583728	0.14769248
405	1.616	1.6204976	0.091749044	-0.13429596	0.95227023	0.034779948	0.094318827	1.4915578	0.084635148	-0.1482615	0.85259857	0.12226934	0.12374676	1.4936961	0.09833333	-0.064505027	0.87916921	0.13306985	0.037519203	1.4345783	0.030755068	-0.10175045	0.79597477	0.13349486	0.066210831	1.417267	0.45153437	-0.13884931	1.1011107	0.43356163	0.1323032	1.4052575	0.44019948	-0.01734653	1.0743645	0.43079026	0.0041889393	1.2462593	0.80076133	-0.17782407	1.1715442	0.78993331	0.16684313	1.3076895	0.8493568	-0.12295181	1.2903993	0.84020547	0.12647807	1.1127169	0.91422197	-0.0076891481	1.2270915	1.3278978	-0.18726931	1.2364899	1.3175482	0.16993124	1.1505237	1.3551288	-0.0045561558	1.105213	1.045518	-0.24223437	1.3409747	1.0170249	0.27247647	1.150758	0.8220986	-0.32582718	1.5149016	1.1566315	0.14647428
406	1.62	1.6242365	0.088273954	-0.13302794	0.95258186	0.034765413	0.094530404	1.4953544	0.081693589	-0.14792922	0.85490885	0.12411359	0.12422227	1.4973233	0.095474426	-0.06414655	0.88179517	0.13458124	0.037982629	1.4371831	0.02992174	-0.10203692	0.79882113	0.13650232	0.066651151	1.4226056	0.44986717	-0.13905997	1.1084372	0.43183324	0.13226583	1.4108514	0.43879481	-0.017542059	1.0813656	0.4291202	0.0043499422	1.2530447	0.79937081	-0.17868325	1.178797	0.78828132	0.16596162	1.3144779	0.84768234	-0.12383077	1.2972056	0.83869664	0.1256051	1.119386	0.91251622	-0.0087545079	1.2326299	1.3262172	-0.18863337	1.2420584	1.3160118	0.16872478	1.1560889	1.3534007	-0.0058816266	1.1108325	1.0437883	-0.24290924	1.345563	1.0152872	0.27192104	1.1556605	0.8203758	-0.32687327	1.5192804	1.1546758	0.14529425
407	1.624	1.6278789	0.083746891	-0.13154196	0.95290957	0.034742079	0.094737479	1.4989623	0.07871234	-0.14763617	0.85741228	0.12604478	0.12467683	1.5008147	0.092536224	-0.063748493	0.88470565	0.1361348	0.03849241	1.4393226	0.029822252	-0.10225648	0.80194751	0.13970605	0.066956643	1.4279213	0.4481558	-0.1393483	1.1159205	0.43001332	0.13229093	1.4165336	0.43726327	-0.017701766	1.0885966	0.42734156	0.004561859	1.259854	0.79797593	-0.17953803	1.1858116	0.78665738	0.16533834	1.321297	0.84603355	-0.12468018	1.3039627	0.83721649	0.12471882	1.1261569	0.91078473	-0.0097043846	1.2382122	1.3245405	-0.19000964	1.2476073	1.3144776	0.16747533	1.1616711	1.3516735	-0.0072370681	1.1165322	1.0420538	-0.24359979	1.3499927	1.0135148	0.27140942	1.1606947	0.81864322	-0.32789071	1.5235923	1.1525277	0.14415083
408	1.628	1.6316378	0.077557892	-0.13003364	0.95324704	0.034713697	0.094908796	1.5025455	0.075939762	-0.14742066	0.86012021	0.12807493	0.12511629	1.5043445	0.089644691	-0.063380131	0.88790912	0.13772119	0.0390545	1.4412155	0.030359896	-0.1023381	0.80534756	0.14310522	0.067208514	1.4331838	0.44639637	-0.13968635	1.1235972	0.42808534	0.13238347	1.4222667	0.43561865	-0.017909523	1.0960715	0.4254477	0.0048326196	1.266695	0.79654774	-0.18039153	1.1930319	0.78496635	0.16467155	1.3281179	0.84443421	-0.12548293	1.3106471	0.83577033	0.12381975	1.1330003	0.90907033	-0.01052879	1.2438299	1.3228708	-0.19139501	1.2531453	1.3129457	0.1661841	1.167251	1.3499633	-0.0086324041	1.1223128	1.0403085	-0.24429998	1.3541027	1.0117581	0.27095453	1.1658668	0.81689858	-0.32888257	1.5278683	1.1502077	0.1430429
409	1.632	1.6355916	0.069561544	-0.12888166	0.95358206	0.034688984	0.095017658	1.5062743	0.073608123	-0.14729285	0.86303859	0.13021506	0.12555631	1.5081092	0.086951802	-0.063132518	0.89143771	0.13931153	0.039720527	1.4430545	0.031442467	-0.10234506	0.80902813	0.14670983	0.067471333	1.4384436	0.44459719	-0.14000687	1.1315227	0.42605146	0.13254114	1.4280419	0.43387377	-0.018209249	1.1038078	0.42343249	0.0051717149	1.2735707	0.79508198	-0.18126199	1.2006413	0.78317131	0.16388762	1.3349029	0.84291622	-0.12623015	1.317351	0.83433917	0.12291258	1.1398441	0.90743414	-0.011300663	1.2494801	1.321213	-0.19279254	1.2587127	1.3114119	0.16485992	1.1728162	1.3483008	-0.010078068	1.1281719	1.0385526	-0.2450092	1.3578056	1.0100564	0.27055815	1.1711858	0.81513881	-0.32985066	1.5321536	1.1477202	0.14197141
410	1.636	1.6395732	0.060601246	-0.12837965	0.95391648	0.03468176	0.095064864	1.5101804	0.071773813	-0.14722167	0.86619565	0.1324663	0.12601805	1.5121114	0.084574623	-0.063035706	0.89533984	0.14087167	0.040546366	1.4449539	0.032870438	-0.10244012	0.81308334	0.15049504	0.067730355	1.4438695	0.44280133	-0.14023293	1.1397496	0.42392563	0.13276062	1.4338737	0.43203135	-0.018571955	1.1118242	0.42128656	0.0055821104	1.2804679	0.79363032	-0.18217679	1.2086104	0.78126917	0.16302715	1.3416195	0.84150352	-0.12693073	1.3241928	0.83289414	0.12198672	1.1466078	0.9059235	-0.012112111	1.2551688	1.3195737	-0.19420812	1.2643368	1.3098774	0.16351808	1.1783613	1.346717	-0.011577857	1.1341042	1.0367869	-0.24573224	1.3613219	1.0083595	0.27019902	1.1766548	0.813361	-0.3307963	1.5364644	1.1450641	0.14093869
